<svg width="20" height="20" viewBox="0 0 20 20" fill="none" xmlns="http://www.w3.org/2000/svg">
<path d="M10.7336 1.87969C10.5609 1.86463 10.387 1.88564 10.2229 1.94139C10.0588 1.99713 9.90813 2.08639 9.78037 2.2035C9.65261 2.3206 9.5506 2.463 9.48081 2.62164C9.41103 2.78027 9.37499 2.95169 9.375 3.125V6.30234C9.37284 6.59717 9.47588 6.88311 9.66562 7.10878C9.85535 7.33446 10.1193 7.48508 10.4102 7.53359C10.8748 7.61155 11.308 7.81923 11.6597 8.13268C12.0115 8.44613 12.2675 8.85261 12.3983 9.30525C12.5291 9.75789 12.5293 10.2383 12.3989 10.691C12.2685 11.1438 12.0128 11.5505 11.6613 11.8642C11.3098 12.1779 10.8768 12.386 10.4122 12.4643C9.94762 12.5427 9.47035 12.4881 9.0354 12.307C8.60046 12.1259 8.22555 11.8255 7.9539 11.4406C7.68224 11.0556 7.5249 10.6017 7.5 10.1313C7.46797 9.48906 7.59922 8.95938 7.89062 8.54844C8.06189 8.30953 8.14264 8.01752 8.11846 7.72457C8.09427 7.43161 7.96672 7.1568 7.75859 6.94922L5.60078 4.74063C5.47778 4.61762 5.33047 4.52165 5.16826 4.45883C5.00605 4.39602 4.83251 4.36775 4.65875 4.37584C4.48499 4.38393 4.31484 4.4282 4.15916 4.50581C4.00349 4.58342 3.86573 4.69267 3.75469 4.82656C2.45232 6.38749 1.78504 8.38135 1.8855 10.4118C1.98595 12.4422 2.84679 14.3604 4.29688 15.7852C5.81312 17.2895 7.86414 18.1309 10 18.125H10.1164C12.2293 18.089 14.2456 17.2336 15.7398 15.7393C17.234 14.2449 18.0892 12.2285 18.125 10.1156C18.1836 5.87344 14.9367 2.25625 10.7336 1.87969ZM4.7125 5.62031L6.86953 7.82266V7.82734C6.54935 8.28682 6.34828 8.81862 6.28438 9.375H3.15313C3.27829 7.99381 3.82236 6.6838 4.7125 5.62031ZM3.15391 10.625H6.30234C6.43196 11.3929 6.79744 12.1015 7.34806 12.6522C7.89867 13.203 8.60711 13.5686 9.375 13.6984V16.8469C7.77425 16.7006 6.27535 15.9981 5.13881 14.8614C4.00227 13.7248 3.29994 12.2258 3.15391 10.625ZM14.8547 14.8547C13.7226 15.9947 12.225 16.6992 10.625 16.8445V13.6984C11.3493 13.5779 12.0216 13.2454 12.557 12.743C13.0689 12.2661 13.4372 11.6555 13.6202 10.9802C13.8032 10.305 13.7937 9.592 13.5927 8.92189C13.3917 8.25177 13.0072 7.65124 12.4828 7.18819C11.9584 6.72514 11.3148 6.41802 10.625 6.30156V3.125C14.1813 3.44375 16.9273 6.50625 16.875 10.0977C16.8504 11.8867 16.125 13.5947 14.8547 14.8547Z" fill="#637381"/>
</svg>
