<svg width="40" height="40" viewBox="0 0 40 40" fill="none" xmlns="http://www.w3.org/2000/svg">
<circle cx="20" cy="20" r="19.5" fill="white" stroke="#F0F0F0"/>
<path d="M20.9375 24.0625C20.9375 24.2479 20.8825 24.4292 20.7795 24.5833C20.6765 24.7375 20.5301 24.8577 20.3588 24.9286C20.1875 24.9996 19.999 25.0182 19.8171 24.982C19.6352 24.9458 19.4682 24.8565 19.3371 24.7254C19.206 24.5943 19.1167 24.4273 19.0805 24.2454C19.0443 24.0635 19.0629 23.875 19.1339 23.7037C19.2048 23.5324 19.325 23.386 19.4792 23.283C19.6333 23.18 19.8146 23.125 20 23.125C20.2486 23.125 20.4871 23.2238 20.6629 23.3996C20.8387 23.5754 20.9375 23.8139 20.9375 24.0625ZM20 15.625C18.2766 15.625 16.875 16.8867 16.875 18.4375V18.75C16.875 18.9158 16.9409 19.0747 17.0581 19.1919C17.1753 19.3092 17.3342 19.375 17.5 19.375C17.6658 19.375 17.8247 19.3092 17.9419 19.1919C18.0592 19.0747 18.125 18.9158 18.125 18.75V18.4375C18.125 17.5781 18.9664 16.875 20 16.875C21.0336 16.875 21.875 17.5781 21.875 18.4375C21.875 19.2969 21.0336 20 20 20C19.8342 20 19.6753 20.0658 19.5581 20.1831C19.4409 20.3003 19.375 20.4592 19.375 20.625V21.25C19.375 21.4158 19.4409 21.5747 19.5581 21.6919C19.6753 21.8092 19.8342 21.875 20 21.875C20.1658 21.875 20.3247 21.8092 20.4419 21.6919C20.5592 21.5747 20.625 21.4158 20.625 21.25V21.1938C22.05 20.932 23.125 19.7953 23.125 18.4375C23.125 16.8867 21.7234 15.625 20 15.625ZM28.125 20C28.125 21.607 27.6485 23.1779 26.7557 24.514C25.8629 25.8502 24.594 26.8916 23.1093 27.5065C21.6247 28.1215 19.991 28.2824 18.4149 27.9689C16.8388 27.6554 15.3911 26.8815 14.2548 25.7452C13.1185 24.6089 12.3446 23.1612 12.0311 21.5851C11.7176 20.009 11.8785 18.3753 12.4935 16.8907C13.1084 15.406 14.1498 14.1371 15.486 13.2443C16.8221 12.3515 18.393 11.875 20 11.875C22.1542 11.8773 24.2195 12.734 25.7427 14.2573C27.266 15.7805 28.1227 17.8458 28.125 20ZM26.875 20C26.875 18.6403 26.4718 17.311 25.7164 16.1805C24.9609 15.0499 23.8872 14.1687 22.631 13.6483C21.3747 13.128 19.9924 12.9918 18.6588 13.2571C17.3251 13.5224 16.1001 14.1772 15.1386 15.1386C14.1772 16.1001 13.5224 17.3251 13.2571 18.6588C12.9918 19.9924 13.128 21.3747 13.6483 22.6309C14.1687 23.8872 15.0499 24.9609 16.1805 25.7164C17.311 26.4718 18.6403 26.875 20 26.875C21.8227 26.8729 23.5702 26.1479 24.8591 24.8591C26.1479 23.5702 26.8729 21.8227 26.875 20Z" fill="#212B36"/>
</svg>
